<?xml version="1.0" encoding="UTF-8" standalone="no"?>
<!-- Created with Inkscape (http://www.inkscape.org/) -->

<svg
   width="896"
   height="1152"
   viewBox="0 0 237.06666 304.8"
   version="1.1"
   id="svg1"
   sodipodi:docname="fundo.svg"
   inkscape:version="1.3 (0e150ed6c4, 2023-07-21)"
   xmlns:inkscape="http://www.inkscape.org/namespaces/inkscape"
   xmlns:sodipodi="http://sodipodi.sourceforge.net/DTD/sodipodi-0.dtd"
   xmlns="http://www.w3.org/2000/svg"
   xmlns:svg="http://www.w3.org/2000/svg">
  <sodipodi:namedview
     id="namedview1"
     pagecolor="#ffffff"
     bordercolor="#cccccc"
     borderopacity="1"
     inkscape:showpageshadow="0"
     inkscape:pageopacity="1"
     inkscape:pagecheckerboard="0"
     inkscape:deskcolor="#d1d1d1"
     inkscape:zoom="0.49902588"
     inkscape:cx="504.98383"
     inkscape:cy="499.97407"
     inkscape:window-width="1920"
     inkscape:window-height="1009"
     inkscape:window-x="-8"
     inkscape:window-y="-8"
     inkscape:window-maximized="1"
     inkscape:current-layer="svg1" />
  <defs
     id="defs1">
    <filter
       style="color-interpolation-filters:sRGB"
       id="filter4"
       x="-0.75413565"
       y="-0.75413565"
       width="2.5082713"
       height="2.5082713">
      <feGaussianBlur
         stdDeviation="8.0260537"
         id="feGaussianBlur4" />
    </filter>
    <filter
       style="color-interpolation-filters:sRGB"
       id="filter8"
       x="-0.69980824"
       y="-0.90876535"
       width="2.3996165"
       height="2.8175307">
      <feGaussianBlur
         stdDeviation="22.985802"
         id="feGaussianBlur8" />
    </filter>
    <filter
       style="color-interpolation-filters:sRGB"
       id="filter17"
       x="-0.47651455"
       y="-0.8440819"
       width="1.9530291"
       height="2.6881638">
      <feGaussianBlur
         stdDeviation="6.5414968"
         id="feGaussianBlur17" />
    </filter>
    <clipPath
       clipPathUnits="userSpaceOnUse"
       id="clipPath10">
      <path
         d="m 120.8574,181.0125 289.6727,-0.2092 -4.8311,-7.9962 -82.1154,-1.8451 47.8579,-21.1331 -94.8328,-75.1465 -27.7104,0.2089 z"
         clip-rule="evenodd"
         id="path10" />
    </clipPath>
    <clipPath
       clipPathUnits="userSpaceOnUse"
       id="clipPath12">
      <path
         d="m 120.8574,181.0125 289.6727,-0.2092 -4.8311,-7.9962 -82.1154,-1.8451 47.8579,-21.1331 -94.8328,-75.1465 -27.7104,0.2089 z"
         clip-rule="evenodd"
         id="path12-2" />
    </clipPath>
    <clipPath
       clipPathUnits="userSpaceOnUse"
       id="clipPath15">
      <path
         d="m 86.2183,297.5014 359.0249,-0.1094 -10.5769,11.071 -71.2769,9.3801 42.8437,5.3147 -35.3534,23.4709 -231.8613,-17.9059 -11.9375,-10.101 -17.9059,-1.3773 z"
         clip-rule="evenodd"
         id="path15-6" />
    </clipPath>
    <clipPath
       clipPathUnits="userSpaceOnUse"
       id="clipPath17">
      <path
         d="m 86.2183,297.5014 359.0249,-0.1094 -10.5769,11.071 -71.2769,9.3801 42.8437,5.3147 -35.3534,23.4709 -231.8613,-17.9059 -11.9375,-10.101 -17.9059,-1.3773 z"
         clip-rule="evenodd"
         id="path17-1" />
    </clipPath>
    <filter
       style="color-interpolation-filters:sRGB"
       id="filter25"
       x="-0.92374381"
       y="-0.92374381"
       width="2.8474876"
       height="2.8474876">
      <feGaussianBlur
         stdDeviation="9.8311454"
         id="feGaussianBlur25" />
    </filter>
    <clipPath
       clipPathUnits="userSpaceOnUse"
       id="clipPath87">
      <rect
         style="opacity:1;vector-effect:non-scaling-stroke;fill:#ffff00;stroke-width:0.283811;stroke-linecap:round;stroke-miterlimit:1.5;-inkscape-stroke:hairline"
         id="rect88"
         width="22.954094"
         height="21.960674"
         x="220.38637"
         y="15.589669"
         transform="matrix(0.50267169,0.8644774,-0.50267169,0.8644774,0,0)" />
    </clipPath>
    <filter
       style="color-interpolation-filters:sRGB"
       id="filter5"
       x="-0.47744755"
       y="-0.30263684"
       width="1.9548951"
       height="1.6052737">
      <feGaussianBlur
         stdDeviation="6.8173518"
         id="feGaussianBlur5" />
    </filter>
    <filter
       style="color-interpolation-filters:sRGB"
       id="filter6"
       x="-0.60261291"
       y="-0.38197466"
       width="2.2052258"
       height="1.7639493">
      <feGaussianBlur
         stdDeviation="8.6045558"
         id="feGaussianBlur6" />
    </filter>
  </defs>
  <path
     id="path5"
     style="opacity:0.328358;mix-blend-mode:normal;vector-effect:non-scaling-stroke;fill:#0066ff;stroke-width:0.136782;stroke-linecap:round;stroke-miterlimit:1.5;-inkscape-stroke:hairline;filter:url(#filter6)"
     d="m 62.609596,70.10775 c 0,11.802182 15.551259,21.369742 3.749077,21.369741 -11.802182,0 -21.369741,-9.567559 -21.369741,-21.369741 -10e-7,-11.802182 -29.422847,-52.112177 21.369741,-21.369742 10.096808,6.111137 -3.749076,9.567559 -3.749077,21.369742 z"
     transform="matrix(2.0163005,0,0,1.8557017,-58.731833,-42.731362)" />
  <path
     id="path4"
     style="opacity:0.328358;mix-blend-mode:normal;vector-effect:non-scaling-stroke;fill:#00ffff;stroke-width:0.136782;stroke-linecap:round;stroke-miterlimit:1.5;-inkscape-stroke:hairline;filter:url(#filter5)"
     d="m 62.609596,70.10775 c 0,11.802182 15.551259,21.369742 3.749077,21.369741 -11.802182,0 -21.369741,-9.567559 -21.369741,-21.369741 -10e-7,-11.802182 -29.422847,-52.112177 21.369741,-21.369742 10.096808,6.111137 -3.749076,9.567559 -3.749077,21.369742 z"
     transform="matrix(2.0163005,0,0,1.8557017,-32.992074,-58.274417)" />
  <path
     id="path6"
     style="opacity:0.328358;mix-blend-mode:normal;vector-effect:non-scaling-stroke;fill:#ff00ff;stroke-width:0.136782;stroke-linecap:round;stroke-miterlimit:1.5;-inkscape-stroke:hairline;filter:url(#filter6)"
     d="m 62.609596,70.10775 c 0,11.802182 15.551259,21.369742 3.749077,21.369741 -11.802182,0 -21.369741,-9.567559 -21.369741,-21.369741 -10e-7,-11.802182 -29.422847,-52.112177 21.369741,-21.369742 10.096808,6.111137 -3.749076,9.567559 -3.749077,21.369742 z"
     transform="matrix(-2.0163005,0,0,-1.8557017,307.97422,238.77482)" />
  <path
     id="path7"
     style="opacity:0.328358;mix-blend-mode:normal;vector-effect:non-scaling-stroke;fill:#00ffff;stroke-width:0.0921587;stroke-linecap:round;stroke-miterlimit:1.5;-inkscape-stroke:hairline;filter:url(#filter5)"
     d="m 62.609596,70.10775 c 0,11.802182 15.551259,21.369742 3.749077,21.369741 -11.802182,0 -21.369741,-9.567559 -21.369741,-21.369741 -10e-7,-11.802182 -29.422847,-52.112177 21.369741,-21.369742 10.096808,6.111137 -3.749076,9.567559 -3.749077,21.369742 z"
     transform="matrix(-2.9925944,0,0,-2.7542336,334.61014,312.22438)" />
</svg>
